<svg width="72" height="32" viewBox="0 0 72 32" fill="none" xmlns="http://www.w3.org/2000/svg">
<path d="M71.1144 29.1365C69.0231 20.9959 64.462 13.7939 58.1228 8.6229C51.7836 3.45188 44.0122 0.593962 35.9874 0.482629C27.9625 0.371295 20.122 3.01262 13.6551 8.00597C7.18814 12.9993 2.44759 20.0723 0.152466 28.1521L8.39926 30.7379C10.1589 24.5431 13.7935 19.1203 18.7517 15.2919C23.7098 11.4636 29.7211 9.43846 35.8737 9.52382C42.0264 9.60918 47.9847 11.8003 52.8449 15.7649C57.7051 19.7295 61.2021 25.2513 62.8055 31.4927L71.1144 29.1365Z" fill="#7BFF98"/>
<path d="M35.9874 0.482629C44.0122 0.593962 51.7836 3.45188 58.1228 8.6229L52.8449 15.7649C47.9846 11.8003 42.0264 9.60918 35.8737 9.52382C29.7211 9.43846 23.7098 11.4636 18.7517 15.2919C13.7935 19.1203 10.1589 24.5431 8.39926 30.7379L0.152466 28.1521C2.44759 20.0723 7.18814 12.9993 13.6551 8.00597C20.122 3.01262 27.9625 0.371295 35.9874 0.482629Z" fill="#AFFF70"/>
<path d="M13.6551 8.00597C20.122 3.01262 27.9625 0.371295 35.9874 0.482629L35.8737 9.52382C29.7211 9.43846 23.7098 11.4636 18.7517 15.2919C13.7935 19.1203 10.1589 24.5431 8.39926 30.7379L0.152466 28.1521C2.44759 20.0723 7.18814 12.9993 13.6551 8.00597Z" fill="#FDFF8B"/>
<path d="M0.152161 28.1522C2.44729 20.0724 7.18783 12.9995 13.6548 8.0061L18.7513 15.2921C13.7932 19.1205 10.1586 24.5433 8.39895 30.738L0.152161 28.1522Z" fill="#FF7878"/>
</svg>
